<svg width="495" height="195" viewBox="0 0 495 195" xmlns="http://www.w3.org/2000/svg">
  <defs>
    <style>
      .title { font: 600 14px 'Segoe UI', Ubuntu, sans-serif; fill: #58a6ff; }
      .stat-label { font: 400 12px 'Segoe UI', Ubuntu, sans-serif; fill: #8b949e; }
      .stat-value { font: 600 13px 'Segoe UI', Ubuntu, sans-serif; fill: #e6edf3; }
      .icon { fill: #21c55d; }
      .border { fill: none; stroke: #30363d; stroke-width: 1; }
      .bg { fill: #0d1117; }
      .bar-bg { fill: #21262d; }
      .lang-label { font: 400 11px 'Segoe UI', Ubuntu, sans-serif; fill: #8b949e; }
      .lang-pct { font: 600 11px 'Segoe UI', Ubuntu, sans-serif; fill: #e6edf3; }
    </style>
    <pattern id="grid" width="20" height="20" patternUnits="userSpaceOnUse">
      <path d="M 20 0 L 0 0 0 20" fill="none" stroke="#21c55d" stroke-width="0.1" opacity="0.3"/>
    </pattern>
  </defs>
  <rect width="495" height="195" rx="10" class="bg"/>
  <rect width="495" height="195" rx="10" fill="url(#grid)"/>
  <rect width="495" height="195" rx="10" class="border"/>
  <rect x="0" y="30" width="3" height="60" rx="1.5" fill="#21c55d" opacity="0.7"/>
  <text x="25" y="28" class="title">Anjaya Induwara's GitHub Stats</text>
  <line x1="18" y1="38" x2="477" y2="38" stroke="#21262d" stroke-width="1"/>

  <svg x="18" y="52" width="14" height="14" viewBox="0 0 16 16" class="icon">
    <path d="M8 .25a.75.75 0 0 1 .673.418l1.882 3.815 4.21.612a.75.75 0 0 1 .416 1.279l-3.046 2.97.719 4.192a.75.75 0 0 1-1.088.791L8 12.347l-3.766 1.98a.75.75 0 0 1-1.088-.79l.72-4.194L.818 6.374a.75.75 0 0 1 .416-1.28l4.21-.611L7.327.668A.75.75 0 0 1 8 .25Z"/>
  </svg>
  <text x="38" y="63" class="stat-label">Total Stars Earned:</text>
  <text x="210" y="63" class="stat-value">5</text>

  <svg x="18" y="76" width="14" height="14" viewBox="0 0 16 16" class="icon">
    <path d="M11.93 8.5a4.002 4.002 0 0 1-7.86 0H.75a.75.75 0 0 1 0-1.5h3.32a4.002 4.002 0 0 1 7.86 0h3.32a.75.75 0 0 1 0 1.5Zm-1.43-.75a2.5 2.5 0 1 0-5 0 2.5 2.5 0 0 0 5 0Z"/>
  </svg>
  <text x="38" y="87" class="stat-label">Total Commits (2026):</text>
  <text x="210" y="87" class="stat-value">252</text>

  <svg x="18" y="100" width="14" height="14" viewBox="0 0 16 16" class="icon">
    <path d="M1.5 3.25a2.25 2.25 0 1 1 3 2.122v5.256a2.251 2.251 0 1 1-1.5 0V5.372A2.25 2.25 0 0 1 1.5 3.25Zm5.677-.177L9.573.677A.25.25 0 0 1 10 .854V2.5h1A2.5 2.5 0 0 1 13.5 5v5.628a2.251 2.251 0 1 1-1.5 0V5a1 1 0 0 0-1-1h-1v1.646a.25.25 0 0 1-.427.177L7.177 3.427a.25.25 0 0 1 0-.354Z"/>
  </svg>
  <text x="38" y="111" class="stat-label">Total PRs:</text>
  <text x="210" y="111" class="stat-value">7</text>

  <svg x="18" y="124" width="14" height="14" viewBox="0 0 16 16" class="icon">
    <path d="M8 9.5a1.5 1.5 0 1 0 0-3 1.5 1.5 0 0 0 0 3Z"/>
    <path d="M8 0a8 8 0 1 1 0 16A8 8 0 0 1 8 0ZM1.5 8a6.5 6.5 0 1 0 13 0 6.5 6.5 0 0 0-13 0Z"/>
  </svg>
  <text x="38" y="135" class="stat-label">Total Issues:</text>
  <text x="210" y="135" class="stat-value">2</text>

  <svg x="18" y="148" width="14" height="14" viewBox="0 0 16 16" class="icon">
    <path d="M2 2.5A2.5 2.5 0 0 1 4.5 0h8.75a.75.75 0 0 1 .75.75v12.5a.75.75 0 0 1-.75.75h-2.5a.75.75 0 0 1 0-1.5h1.75v-2h-8a1 1 0 0 0-.714 1.7.75.75 0 1 1-1.072 1.05A2.495 2.495 0 0 1 2 11.5Zm10.5-1h-8a1 1 0 0 0-1 1v6.708A2.486 2.486 0 0 1 4.5 9h8Z"/>
  </svg>
  <text x="38" y="159" class="stat-label">Contributed to (last year):</text>
  <text x="210" y="159" class="stat-value">2</text>

  <line x1="310" y1="42" x2="310" y2="183" stroke="#21262d" stroke-width="1"/>
  <text x="395" y="52" text-anchor="middle" font-family="'Segoe UI', Ubuntu, sans-serif" font-size="12" font-weight="600" fill="#58a6ff">Most Used Languages</text>
  
  <text x="322" y="60" class="lang-label">Jupyter Notebook</text>
  <text x="477" y="60" text-anchor="end" class="lang-pct">40.1%</text>
  <rect x="322" y="64" width="155" height="5" rx="2.5" class="bar-bg"/>
  <rect x="322" y="64" width="62" height="5" rx="2.5" fill="#DA5B0B"/>
  <text x="322" y="83" class="lang-label">Dart</text>
  <text x="477" y="83" text-anchor="end" class="lang-pct">12.9%</text>
  <rect x="322" y="87" width="155" height="5" rx="2.5" class="bar-bg"/>
  <rect x="322" y="87" width="20" height="5" rx="2.5" fill="#00B4AB"/>
  <text x="322" y="106" class="lang-label">TypeScript</text>
  <text x="477" y="106" text-anchor="end" class="lang-pct">12.8%</text>
  <rect x="322" y="110" width="155" height="5" rx="2.5" class="bar-bg"/>
  <rect x="322" y="110" width="20" height="5" rx="2.5" fill="#3178c6"/>
  <text x="322" y="129" class="lang-label">JavaScript</text>
  <text x="477" y="129" text-anchor="end" class="lang-pct">9.0%</text>
  <rect x="322" y="133" width="155" height="5" rx="2.5" class="bar-bg"/>
  <rect x="322" y="133" width="14" height="5" rx="2.5" fill="#f1e05a"/>
  <text x="322" y="152" class="lang-label">HTML</text>
  <text x="477" y="152" text-anchor="end" class="lang-pct">7.8%</text>
  <rect x="322" y="156" width="155" height="5" rx="2.5" class="bar-bg"/>
  <rect x="322" y="156" width="12" height="5" rx="2.5" fill="#e34c26"/>
  <line x1="18" y1="183" x2="477" y2="183" stroke="#21262d" stroke-width="1"/>
  <text x="18" y="192" font-family="'Segoe UI', Ubuntu, sans-serif" font-size="9" fill="#3d444d">github.com/anjaya02 · 2026</text>
  <text x="477" y="192" text-anchor="end" font-family="'Segoe UI', Ubuntu, sans-serif" font-size="9" fill="#21c55d">reputify.lk</text>
</svg>