<svg width="495" height="210" viewBox="0 0 495 210" xmlns="http://www.w3.org/2000/svg">
  <defs>
    <style>
      @keyframes pulse {
        0%, 100% { opacity: 0.4; }
        50% { opacity: 1; }
      }
      .title { font: 700 13px 'Segoe UI', Ubuntu, sans-serif; fill: #e6edf3; letter-spacing: 0.5px; }
      .subtitle { font: 400 10px 'Segoe UI', Ubuntu, sans-serif; fill: #21c55d; letter-spacing: 2px; }
      .stat-label { font: 400 11.5px 'Segoe UI', Ubuntu, sans-serif; fill: #8b949e; }
      .stat-value { font: 700 13px 'Segoe UI', Ubuntu, sans-serif; fill: #e6edf3; }
      .icon { fill: #21c55d; }
      .border { fill: none; stroke: #21c55d; stroke-width: 1; opacity: 0.15; }
      .bg { fill: #0d1117; }
      .bar-bg { fill: #161b22; rx: 3; }
      .lang-label { font: 500 10.5px 'Segoe UI', Ubuntu, sans-serif; fill: #8b949e; }
      .lang-pct { font: 700 10.5px 'Segoe UI', Ubuntu, sans-serif; fill: #e6edf3; }
      .rank-text { font: 800 13px 'Segoe UI', Ubuntu, sans-serif; fill: #21c55d; }
      .section-label { font: 600 10px 'Segoe UI', Ubuntu, sans-serif; fill: #58a6ff; letter-spacing: 1.5px; }
      .pulse-dot { animation: pulse 2s ease-in-out infinite; }
    </style>
    <pattern id="grid" width="30" height="30" patternUnits="userSpaceOnUse">
      <path d="M 30 0 L 0 0 0 30" fill="none" stroke="#21c55d" stroke-width="0.15" opacity="0.12"/>
    </pattern>
    <pattern id="scan" width="4" height="4" patternUnits="userSpaceOnUse">
      <line x1="0" y1="0" x2="4" y2="0" stroke="#21c55d" stroke-width="0.1" opacity="0.08"/>
    </pattern>
    <filter id="glow">
      <feGaussianBlur stdDeviation="2" result="coloredBlur"/>
      <feMerge>
        <feMergeNode in="coloredBlur"/>
        <feMergeNode in="SourceGraphic"/>
      </feMerge>
    </filter>
    <linearGradient id="rankGrad" x1="0%" y1="0%" x2="100%" y2="100%">
      <stop offset="0%" stop-color="#21c55d" stop-opacity="0.2"/>
      <stop offset="100%" stop-color="#21c55d" stop-opacity="0.05"/>
    </linearGradient>
  </defs>

  <rect width="495" height="210" rx="10" class="bg"/>
  <rect width="495" height="210" rx="10" fill="url(#grid)"/>
  <rect width="495" height="210" rx="10" fill="url(#scan)"/>
  <rect width="495" height="210" rx="10" class="border"/>

  <path d="M 0 12 L 0 0 L 12 0" fill="none" stroke="#21c55d" stroke-width="1.5" opacity="0.3" transform="translate(4,4)"/>
  <path d="M 0 -12 L 0 0 L 12 0" fill="none" stroke="#21c55d" stroke-width="1.5" opacity="0.3" transform="translate(4,206)"/>
  <path d="M 0 0 L -12 0 M 0 0 L 0 12" fill="none" stroke="#21c55d" stroke-width="1.5" opacity="0.3" transform="translate(491,4)"/>

  <rect x="0" y="35" width="3" height="80" rx="1.5" fill="#21c55d" opacity="0.5"/>

  <text x="20" y="24" class="subtitle">GITHUB STATS</text>
  <text x="20" y="38" class="title">Anjaya Induwara</text>

  <circle cx="470" cy="18" r="3" fill="#21c55d" class="pulse-dot"/>
  <text x="460" y="22" text-anchor="end" font-family="'Segoe UI', Ubuntu, sans-serif" font-size="9" fill="#21c55d" opacity="0.6">LIVE</text>

  <line x1="15" y1="46" x2="480" y2="46" stroke="#21262d" stroke-width="1"/>

  <svg x="18" y="56" width="14" height="14" viewBox="0 0 16 16" class="icon">
    <path d="M8 .25a.75.75 0 0 1 .673.418l1.882 3.815 4.21.612a.75.75 0 0 1 .416 1.279l-3.046 2.97.719 4.192a.75.75 0 0 1-1.088.791L8 12.347l-3.766 1.98a.75.75 0 0 1-1.088-.79l.72-4.194L.818 6.374a.75.75 0 0 1 .416-1.28l4.21-.611L7.327.668A.75.75 0 0 1 8 .25Z"/>
  </svg>
  <text x="38" y="67" class="stat-label">Total Stars Earned</text>
  <text x="200" y="67" class="stat-value">5</text>

  <svg x="18" y="78" width="14" height="14" viewBox="0 0 16 16" class="icon">
    <path d="M11.93 8.5a4.002 4.002 0 0 1-7.86 0H.75a.75.75 0 0 1 0-1.5h3.32a4.002 4.002 0 0 1 7.86 0h3.32a.75.75 0 0 1 0 1.5Zm-1.43-.75a2.5 2.5 0 1 0-5 0 2.5 2.5 0 0 0 5 0Z"/>
  </svg>
  <text x="38" y="89" class="stat-label">Total Commits (2026)</text>
  <text x="200" y="89" class="stat-value">259</text>

  <svg x="18" y="100" width="14" height="14" viewBox="0 0 16 16" class="icon">
    <path d="M1.5 3.25a2.25 2.25 0 1 1 3 2.122v5.256a2.251 2.251 0 1 1-1.5 0V5.372A2.25 2.25 0 0 1 1.5 3.25Zm5.677-.177L9.573.677A.25.25 0 0 1 10 .854V2.5h1A2.5 2.5 0 0 1 13.5 5v5.628a2.251 2.251 0 1 1-1.5 0V5a1 1 0 0 0-1-1h-1v1.646a.25.25 0 0 1-.427.177L7.177 3.427a.25.25 0 0 1 0-.354Z"/>
  </svg>
  <text x="38" y="111" class="stat-label">Total PRs</text>
  <text x="200" y="111" class="stat-value">7</text>

  <svg x="18" y="122" width="14" height="14" viewBox="0 0 16 16" class="icon">
    <path d="M8 9.5a1.5 1.5 0 1 0 0-3 1.5 1.5 0 0 0 0 3Z"/>
    <path d="M8 0a8 8 0 1 1 0 16A8 8 0 0 1 8 0ZM1.5 8a6.5 6.5 0 1 0 13 0 6.5 6.5 0 0 0-13 0Z"/>
  </svg>
  <text x="38" y="133" class="stat-label">Total Issues</text>
  <text x="200" y="133" class="stat-value">2</text>

  <svg x="18" y="144" width="14" height="14" viewBox="0 0 16 16" class="icon">
    <path d="M2 2.5A2.5 2.5 0 0 1 4.5 0h8.75a.75.75 0 0 1 .75.75v12.5a.75.75 0 0 1-.75.75h-2.5a.75.75 0 0 1 0-1.5h1.75v-2h-8a1 1 0 0 0-.714 1.7.75.75 0 1 1-1.072 1.05A2.495 2.495 0 0 1 2 11.5Zm10.5-1h-8a1 1 0 0 0-1 1v6.708A2.486 2.486 0 0 1 4.5 9h8Z"/>
  </svg>
  <text x="38" y="155" class="stat-label">Contributed to (last year)</text>
  <text x="200" y="155" class="stat-value">2</text>

  <rect x="235" y="52" width="65" height="28" rx="6" fill="url(#rankGrad)" stroke="#21c55d" stroke-width="0.5" opacity="0.8"/>
  <text x="267" y="70" text-anchor="middle" class="rank-text" filter="url(#glow)">A+ Rank</text>

  <line x1="310" y1="50" x2="310" y2="195" stroke="#21262d" stroke-width="1"/>

  <text x="320" y="59" class="section-label">MOST USED LANGUAGES</text>
  
  <text x="320" y="68" class="lang-label">Jupyter Notebook</text>
  <text x="477" y="68" text-anchor="end" class="lang-pct">40.0%</text>
  <rect x="320" y="72" width="157" height="6" rx="3" class="bar-bg" fill="#161b22"/>
  <rect x="320" y="72" width="63" height="6" rx="3" fill="#DA5B0B"/>
  <text x="320" y="91" class="lang-label">Dart</text>
  <text x="477" y="91" text-anchor="end" class="lang-pct">12.8%</text>
  <rect x="320" y="95" width="157" height="6" rx="3" class="bar-bg" fill="#161b22"/>
  <rect x="320" y="95" width="20" height="6" rx="3" fill="#00B4AB"/>
  <text x="320" y="114" class="lang-label">TypeScript</text>
  <text x="477" y="114" text-anchor="end" class="lang-pct">12.8%</text>
  <rect x="320" y="118" width="157" height="6" rx="3" class="bar-bg" fill="#161b22"/>
  <rect x="320" y="118" width="20" height="6" rx="3" fill="#3178c6"/>
  <text x="320" y="137" class="lang-label">JavaScript</text>
  <text x="477" y="137" text-anchor="end" class="lang-pct">9.0%</text>
  <rect x="320" y="141" width="157" height="6" rx="3" class="bar-bg" fill="#161b22"/>
  <rect x="320" y="141" width="14" height="6" rx="3" fill="#f1e05a"/>
  <text x="320" y="160" class="lang-label">HTML</text>
  <text x="477" y="160" text-anchor="end" class="lang-pct">7.8%</text>
  <rect x="320" y="164" width="157" height="6" rx="3" class="bar-bg" fill="#161b22"/>
  <rect x="320" y="164" width="12" height="6" rx="3" fill="#e34c26"/>

  <line x1="15" y1="195" x2="480" y2="195" stroke="#21262d" stroke-width="1"/>
  <text x="15" y="206" font-family="'Segoe UI', Ubuntu, sans-serif" font-size="9" fill="#3d444d">github.com/anjaya02 · 2026</text>
  <text x="480" y="206" text-anchor="end" font-family="'Segoe UI', Ubuntu, sans-serif" font-size="9" fill="#21c55d" opacity="0.7">⬡ reputify.lk</text>
</svg>